<svg width="36" height="38" viewBox="0 0 36 38" fill="none" xmlns="http://www.w3.org/2000/svg">
<path d="M10 0.997131C4.486 0.997131 0 5.53813 0 11.1197V27.3159C0 32.8975 4.486 37.4385 10 37.4385H26C31.514 37.4385 36 32.8975 36 27.3159V11.1197C36 5.53813 31.514 0.997131 26 0.997131H10ZM10 5.04617H26C29.308 5.04617 32 7.77117 32 11.1197V27.3159C32 30.6644 29.308 33.3895 26 33.3895H10C6.692 33.3895 4 30.6644 4 27.3159V11.1197C4 7.77117 6.692 5.04617 10 5.04617ZM28 7.07069C27.4696 7.07069 26.9609 7.28399 26.5858 7.66366C26.2107 8.04333 26 8.55827 26 9.09521C26 9.63215 26.2107 10.1471 26.5858 10.5268C26.9609 10.9064 27.4696 11.1197 28 11.1197C28.5304 11.1197 29.0391 10.9064 29.4142 10.5268C29.7893 10.1471 30 9.63215 30 9.09521C30 8.55827 29.7893 8.04333 29.4142 7.66366C29.0391 7.28399 28.5304 7.07069 28 7.07069ZM18 9.09521C12.486 9.09521 8 13.6362 8 19.2178C8 24.7994 12.486 29.3404 18 29.3404C23.514 29.3404 28 24.7994 28 19.2178C28 13.6362 23.514 9.09521 18 9.09521ZM18 13.1443C21.308 13.1443 24 15.8693 24 19.2178C24 22.5664 21.308 25.2914 18 25.2914C14.692 25.2914 12 22.5664 12 19.2178C12 15.8693 14.692 13.1443 18 13.1443Z" fill="black"/>
</svg>
