<svg width="36" height="38" viewBox="0 0 36 38" fill="none" xmlns="http://www.w3.org/2000/svg">
<path d="M4 0.997131C1.79 0.997131 0 2.80908 0 5.04617V33.3895C0 35.6265 1.79 37.4385 4 37.4385H32C34.21 37.4385 36 35.6265 36 33.3895V5.04617C36 2.80908 34.21 0.997131 32 0.997131H4ZM4 5.04617H32V33.3895H4V5.04617ZM9.55859 7.71126C7.84459 7.71126 6.81641 8.75424 6.81641 10.1431C6.81641 11.5319 7.84472 12.5709 9.38672 12.5709C11.1007 12.5709 12.1289 11.5319 12.1289 10.1431C12.1289 8.75424 11.1006 7.71126 9.55859 7.71126ZM6.95312 15.1688V29.3404H12V15.1688H6.95312ZM16.1641 15.1688V29.3404H21.2109V21.5942C21.2109 19.2883 22.8362 18.9568 23.3242 18.9568C23.8122 18.9568 25.1172 19.4523 25.1172 21.5942V29.3404H30V21.5942C30 17.1464 28.0475 15.1688 25.6055 15.1688C23.1635 15.1688 21.8609 15.9919 21.2109 17.1458V15.1688H16.1641Z" fill="black"/>
</svg>
